 <svg id="Layer_1" data-name="Layer 1" xmlns="http://www.w3.org/2000/svg" viewBox="0 0 167.8 129.15"><defs><style>.cls-1{fill:#fff;}</style></defs><title>moon</title><polygon class="cls-1" points="167.8 102.02 167.8 98.99 0 98.99 0 102.02 14.99 102.02 14.99 105.77 0 105.77 0 108.8 26.33 108.8 26.33 112.56 2.94 112.56 2.94 115.58 39.99 115.58 39.99 119.34 21.24 119.34 21.24 122.37 63.31 122.37 63.31 126.13 57.34 126.13 57.34 129.15 111.48 129.15 111.48 126.13 104.73 126.13 104.73 122.37 146.56 122.37 146.56 119.34 128.29 119.34 128.29 115.58 164.86 115.58 164.86 112.56 142.57 112.56 142.57 108.8 167.8 108.8 167.8 105.77 154.44 105.77 154.44 102.02 167.8 102.02"/><polygon class="cls-1" points="27.8 27.55 28.73 30.84 32.01 31.77 28.73 32.7 27.8 35.99 26.86 32.7 23.58 31.77 26.86 30.84 27.8 27.55"/><polygon class="cls-1" points="120.61 19.4 121.54 22.68 124.82 23.61 121.54 24.55 120.61 27.83 119.67 24.55 116.39 23.61 119.67 22.68 120.61 19.4"/><polygon class="cls-1" points="82.41 0 83.34 3.29 86.62 4.22 83.34 5.15 82.41 8.43 81.47 5.15 78.19 4.22 81.47 3.29 82.41 0"/><polygon class="cls-1" points="94.56 36.66 95.49 39.94 98.78 40.87 95.49 41.8 94.56 45.09 93.63 41.8 90.34 40.87 93.63 39.94 94.56 36.66"/><polygon class="cls-1" points="76.92 25.69 78.13 29.96 82.41 31.17 78.13 32.38 76.92 36.66 75.71 32.38 71.44 31.17 75.71 29.96 76.92 25.69"/><polygon class="cls-1" points="102.81 55.39 104.02 59.66 108.29 60.88 104.02 62.09 102.81 66.36 101.59 62.09 97.32 60.88 101.59 59.66 102.81 55.39"/><path class="cls-1" d="M467.21,80.52A51.83,51.83,0,0,1,424.62,7.18,51.82,51.82,0,1,0,490.91,77,51.9,51.9,0,0,1,467.21,80.52Z" transform="translate(-357.07)"/><polygon class="cls-1" points="29.74 74.66 31.32 80.26 36.93 81.85 31.32 83.44 29.74 89.04 28.15 83.44 22.55 81.85 28.15 80.26 29.74 74.66"/><polygon class="cls-1" points="130.03 46.8 131.92 53.49 138.62 55.39 131.92 57.29 130.03 63.98 128.13 57.29 121.44 55.39 128.13 53.49 130.03 46.8"/></svg>